<svg id="Layer_1" enable-background="new 0 0 256 256" height="512" viewBox="0 0 256 256" width="512" xmlns="http://www.w3.org/2000/svg"><g><g><path d="m236 143.163h-216c-6.627 0-12-5.373-12-12v-81.667c0-6.627 5.373-12 12-12h216c6.627 0 12 5.373 12 12v81.667c0 6.627-5.373 12-12 12z" fill="#e0ebfc"/></g><g><path d="m218 143.163h-180v-23.167c0-2.761 2.239-5 5-5h170c2.761 0 5 2.239 5 5z" fill="#a4c9ff"/></g><g><path d="m47 129.08c0-2.209 1.791-4 4-4h154c2.209 0 4 1.791 4 4 0 2.209-1.791 4-4 4h-154c-2.209 0-4-1.791-4-4z" fill="#4671c6"/></g><g><path d="m214 49.996h-172c-2.209 0-4-1.791-4-4v-8.5h180v8.5c0 2.209-1.791 4-4 4z" fill="#a4c9ff"/></g><g><path d="m144.667 93.996h-33.333c-1.657 0-3-1.343-3-3v-10c0-1.657 1.343-3 3-3h33.333c1.657 0 3 1.343 3 3v10c0 1.657-1.343 3-3 3z" fill="#f9a7a7"/></g><g><path d="m68 152.663c-2.209 0-4 1.791-4 4v10.667c0 4.411-3.589 8-8 8h-15.997v-4.348c0-.805-.904-1.28-1.567-.824l-12.674 8.723c-.59.406-.574 1.283.031 1.668l12.674 8.055c.666.423 1.536-.055 1.536-.844v-4.43h15.997c8.822 0 16-7.178 16-16v-10.667c0-2.209-1.791-4-4-4z" fill="#a4c9ff"/></g><g><path d="m136.348 203.83h-4.348v-47.167c0-2.209-1.791-4-4-4s-4 1.791-4 4v47.167h-4.43c-.789 0-1.267.871-.844 1.536l8.055 12.674c.384.605 1.261.621 1.668.031l8.723-12.674c.456-.664-.019-1.567-.824-1.567z" fill="#a4c9ff"/></g><g><path d="m227.498 178.881-12.674-8.723c-.663-.457-1.567.018-1.567.824v4.348h-13.257c-4.411 0-8-3.589-8-8v-10.667c0-2.209-1.791-4-4-4s-4 1.791-4 4v10.667c0 8.822 7.178 16 16 16h13.257v4.43c0 .789.871 1.267 1.536.844l12.674-8.055c.605-.385.621-1.262.031-1.668z" fill="#a4c9ff"/></g><g><path d="m176.348 203.83h-4.348v-47.167c0-2.209-1.791-4-4-4s-4 1.791-4 4v47.167h-4.43c-.789 0-1.267.871-.844 1.536l8.055 12.674c.384.605 1.261.621 1.668.031l8.723-12.674c.456-.664-.019-1.567-.824-1.567z" fill="#a4c9ff"/></g><g><path d="m96.348 203.83h-4.348v-47.167c0-2.209-1.791-4-4-4s-4 1.791-4 4v47.167h-4.43c-.789 0-1.267.871-.844 1.536l8.055 12.674c.384.605 1.261.621 1.668.031l8.723-12.674c.456-.664-.019-1.567-.824-1.567z" fill="#a4c9ff"/></g><g><path d="m236 145.163h-216c-7.72 0-14-6.28-14-14v-81.667c0-7.72 6.28-14 14-14h216c7.72 0 14 6.28 14 14v81.667c0 7.72-6.28 14-14 14zm-216-105.667c-5.514 0-10 4.486-10 10v81.667c0 5.514 4.486 10 10 10h216c5.514 0 10-4.486 10-10v-81.667c0-5.514-4.486-10-10-10z" fill="#3762cc"/></g><g><path d="m218 145.163h-180c-1.104 0-2-.896-2-2v-23.167c0-3.86 3.14-7 7-7h170c3.859 0 7 3.14 7 7v23.167c0 1.105-.896 2-2 2zm-178-4h176v-21.167c0-1.654-1.346-3-3-3h-170c-1.654 0-3 1.346-3 3z" fill="#3762cc"/></g><g><path d="m214 51.996h-172c-3.309 0-6-2.691-6-6v-8.5c0-1.104.896-2 2-2h180c1.104 0 2 .896 2 2v8.5c0 3.309-2.691 6-6 6zm-174-12.5v6.5c0 1.103.897 2 2 2h172c1.103 0 2-.897 2-2v-6.5z" fill="#3762cc"/></g><g><path d="m144.667 95.996h-33.333c-2.757 0-5-2.243-5-5v-10c0-2.757 2.243-5 5-5h33.333c2.757 0 5 2.243 5 5v10c0 2.757-2.243 5-5 5zm-33.334-16c-.551 0-1 .449-1 1v10c0 .551.449 1 1 1h33.333c.552 0 1-.449 1-1v-10c0-.551-.448-1-1-1z" fill="#3762cc"/></g></g></svg>