<svg height="512pt" viewBox="0 0 512 511" width="512pt" xmlns="http://www.w3.org/2000/svg"><path d="m24.152344 94.085938c-13.339844 0-24.152344 10.8125-24.152344 24.152343v342.003907l85.332031 22.636718 85.332031-22.636718v-366.15625zm0 0" fill="#5b6fa0"/><path d="m487.847656 94.085938h-146.515625v366.15625l85.332031 22.636718 85.335938-22.636718v-342.003907c0-13.339843-10.8125-24.152343-24.152344-24.152343zm0 0" fill="#5b6fa0"/><path d="m405.71875 94.085938h-64.386719v366.15625l64.386719 17.078124zm0 0" fill="#52648f"/><path d="m106.28125 477.320312 64.386719-17.078124v-366.15625h-64.386719zm0 0" fill="#52648f"/><path d="m132.035156 24.214844v434.765625l123.964844 27.511719 123.964844-27.511719v-434.765625zm0 0" fill="#89dbd4"/><path d="m429.40625 249.027344h33.152344c5.109375 0 9.25 4.140625 9.25 9.25v50.5625c0 5.109375-4.140625 9.25-9.25 9.25h-33.152344c-5.109375 0-9.25-4.140625-9.25-9.25v-50.5625c0-5.109375 4.140625-9.25 9.25-9.25zm0 0" fill="#fce182"/><path d="m168.433594 315.101562c15.9375-5.953124 32.945312-9.074218 50.273437-9.074218h293.292969v154.21875l-256 26.246094-207.066406-26.246094v-5.871094c0-13.023438 2.761718-25.765625 7.964844-37.429688zm0 0" fill="#eef0f1"/><path d="m168.433594 315.101562v47.132813c0 30.214844-24.496094 54.710937-54.710938 54.710937h-56.824218c4.53125-10.199218 10.929687-19.582031 18.984374-27.628906l41.175782-41.1875c14.703125-14.699218 32.265625-25.886718 51.375-33.027344zm0 0" fill="#b9dcfd"/><path d="m252.089844 357.824219h-27.207032c-11.546874 0-20.90625 9.359375-20.90625 20.90625v107.761719h69.019532v-107.761719c0-11.546875-9.359375-20.90625-20.90625-20.90625zm0 0" fill="#5b6fa0"/><path d="m354.527344 357.824219h-30.164063c-8.457031 0-15.308593 6.851562-15.308593 15.304687v30.167969c0 8.453125 6.851562 15.304687 15.308593 15.304687h30.164063c8.453125 0 15.308594-6.851562 15.308594-15.304687v-30.167969c0-8.453125-6.855469-15.304687-15.308594-15.304687zm0 0" fill="#b9dcfd"/><path d="m455.484375 357.824219h-30.164063c-8.453124 0-15.308593 6.851562-15.308593 15.304687v30.167969c0 8.453125 6.855469 15.304687 15.308593 15.304687h30.164063c8.453125 0 15.308594-6.851562 15.308594-15.304687v-30.167969c0-8.453125-6.855469-15.304687-15.308594-15.304687zm0 0" fill="#b9dcfd"/><path d="m82.59375 135.945312h-33.152344c-5.109375 0-9.25 4.140626-9.25 9.25v50.5625c0 5.109376 4.140625 9.25 9.25 9.25h33.152344c5.109375 0 9.25-4.140624 9.25-9.25v-50.5625c0-5.109374-4.140625-9.25-9.25-9.25zm0 0" fill="#fce182"/><g fill="#eef0f1"><path d="m215.144531 85.875h-33.152343c-5.109376 0-9.25 4.140625-9.25 9.25v50.5625c0 5.109375 4.140624 9.25 9.25 9.25h33.152343c5.109375 0 9.25-4.140625 9.25-9.25v-50.5625c0-5.109375-4.144531-9.25-9.25-9.25zm0 0"/><path d="m215.144531 195.074219h-33.152343c-5.109376 0-9.25 4.140625-9.25 9.25v50.5625c0 5.109375 4.140624 9.25 9.25 9.25h33.152343c5.109375 0 9.25-4.140625 9.25-9.25v-50.5625c0-5.109375-4.144531-9.25-9.25-9.25zm0 0"/><path d="m296.855469 85.875h33.152343c5.109376 0 9.25 4.140625 9.25 9.25v50.5625c0 5.109375-4.140624 9.25-9.25 9.25h-33.152343c-5.109375 0-9.25-4.140625-9.25-9.25v-50.5625c0-5.109375 4.144531-9.25 9.25-9.25zm0 0"/><path d="m296.855469 195.074219h33.152343c5.109376 0 9.25 4.140625 9.25 9.25v50.5625c0 5.109375-4.140624 9.25-9.25 9.25h-33.152343c-5.109375 0-9.25-4.140625-9.25-9.25v-50.5625c0-5.109375 4.144531-9.25 9.25-9.25zm0 0"/></g><path d="m82.59375 249.027344h-33.152344c-5.109375 0-9.25 4.140625-9.25 9.25v50.5625c0 5.109375 4.140625 9.25 9.25 9.25h33.152344c5.109375 0 9.25-4.140625 9.25-9.25v-50.5625c0-5.109375-4.140625-9.25-9.25-9.25zm0 0" fill="#fce182"/><path d="m429.40625 135.945312h33.152344c5.109375 0 9.25 4.140626 9.25 9.25v50.5625c0 5.109376-4.140625 9.25-9.25 9.25h-33.152344c-5.109375 0-9.25-4.140624-9.25-9.25v-50.5625c0-5.109374 4.140625-9.25 9.25-9.25zm0 0" fill="#fce182"/><path d="m132.035156 76.574219h247.929688v-52.359375h-247.929688zm0 0" fill="#72b8b2"/><path d="m379.964844.5h-247.929688c-7.234375 0-13.097656 5.863281-13.097656 13.097656v18.972656c0 7.234376 5.863281 13.097657 13.097656 13.097657h247.929688c7.234375 0 13.101562-5.863281 13.101562-13.097657v-18.972656c-.003906-7.234375-5.867187-13.097656-13.101562-13.097656zm0 0" fill="#5b6fa0"/><path d="m0 460.242188h512v51.480468h-512zm0 0" fill="#bbbdbd"/></svg>