<svg id="Flat" height="512" viewBox="0 0 512 512" width="512" xmlns="http://www.w3.org/2000/svg"><path d="m287.999 439.999v16l-8 32h-48l-8-32v-16z" fill="#7e8589"/><path d="m215.999 375.999h80v80h-80z" fill="#9aa3a8"/><path d="m296 432h-48a8 8 0 0 1 0-16h48a8 8 0 0 1 0 16z" fill="#7e8589"/><g fill="#ffd33a"><path d="m383.937 206.489a131.263 131.263 0 0 1 -56.955 112.811 28.876 28.876 0 0 0 -12.088 19.073l-7.072 41.6a14.307 14.307 0 0 1 -14.013 12.027h-75.621a14.309 14.309 0 0 1 -14.013-12.031l-7.075-41.594a28.768 28.768 0 0 0 -12.017-19.027 131.177 131.177 0 0 1 -57.083-108.748c0-71.61 58.006-129.77 128-130.6 69.464-.826 125.8 55.638 127.937 126.489z"/><path d="m256 64a8 8 0 0 1 -8-8v-24a8 8 0 0 1 16 0v24a8 8 0 0 1 -8 8z"/><path d="m104 264h-24a8 8 0 0 1 0-16h24a8 8 0 1 1 0 16z"/><path d="m432 264h-24a8 8 0 0 1 0-16h24a8 8 0 0 1 0 16z"/><path d="m120 136a7.974 7.974 0 0 1 -5.657-2.343l-16.972-16.971a8 8 0 0 1 11.314-11.313l16.97 16.97a8 8 0 0 1 -5.655 13.657z"/><path d="m392 136a8 8 0 0 1 -5.657-13.657l16.971-16.97a8 8 0 0 1 11.313 11.313l-16.971 16.971a7.974 7.974 0 0 1 -5.656 2.343z"/><path d="m144 384a8 8 0 0 1 -5.657-13.657l16.971-16.97a8 8 0 0 1 11.313 11.313l-16.971 16.971a7.974 7.974 0 0 1 -5.656 2.343z"/><path d="m368 384a7.974 7.974 0 0 1 -5.657-2.343l-16.971-16.971a8 8 0 0 1 11.314-11.313l16.97 16.97a8 8 0 0 1 -5.656 13.657z"/></g><path d="m327.999 199.999h-56v-72l-88 104h56v72z" fill="#ff750a"/></svg>